<svg width="40" height="40" viewBox="0 0 40 40" xmlns="http://www.w3.org/2000/svg">
  <defs>
    <filter id="shadow" x="-20%" y="-20%" width="140%" height="140%">
      <feGaussianBlur in="SourceAlpha" stdDeviation="1"/>
      <feOffset dx="0" dy="1" result="offsetblur"/>
      <feComponentTransfer>
        <feFuncA type="linear" slope="0.5"/>
      </feComponentTransfer>
      <feMerge>
        <feMergeNode/>
        <feMergeNode in="SourceGraphic"/>
      </feMerge>
    </filter>
  </defs>
  <g filter="url(#shadow)">
    <circle cx="20" cy="20" r="16" fill="#3B82F6"/>
    <path d="M20 10 C16.69 10 14 12.69 14 16 C14 20.42 20 28 20 28 S26 20.42 26 16 C26 12.69 23.31 10 20 10 Z M20 18 C18.9 18 18 17.1 18 16 C18 14.9 18.9 14 20 14 C21.1 14 22 14.9 22 16 C22 17.1 21.1 18 20 18 Z" fill="white"/>
    <circle cx="13" cy="23" r="3" fill="#1D4ED8" stroke="white" stroke-width="1"/>
    <circle cx="27" cy="23" r="3" fill="#1D4ED8" stroke="white" stroke-width="1"/>
  </g>
</svg>
