<?xml version="1.0" encoding="UTF-8"?>
<svg xmlns="http://www.w3.org/2000/svg" viewBox="0 0 24 24" fill="none" stroke="currentColor" stroke-width="1.5" stroke-linecap="round" stroke-linejoin="round">
  <path d="M17 21v-2a4 4 0 0 0-4-4H5a4 4 0 0 0-4 4v2"></path>
  <circle cx="9" cy="7" r="4"></circle>
  <path d="M23 21v-2a4 4 0 0 0-3-3.87"></path>
  <path d="M16 3.13a4 4 0 0 1 0 7.75"></path>
  <path d="M11 14.5c0 .5-.1.6-.98 1.2-.35.24-.52.36-.52.8 0 .44.17.56.52.8C10.9 17.9 11 18 11 18.5s-.1.6-.98 1.2c-.35.24-.52.36-.52.8 0 .44.17.56.52.8.88.6.98.7.98 1.2"></path>
</svg>