<?xml version="1.0" encoding="UTF-8"?>
<svg xmlns="http://www.w3.org/2000/svg" viewBox="0 0 24 24" fill="none" stroke="currentColor" stroke-width="1.5" stroke-linecap="round" stroke-linejoin="round" class="feather feather-book-open">
  <path d="M12 4.354a4 4 0 110 5.292V4.354zM12 9.646a4 4 0 110 5.292V9.646zM6 4c1.6 0 3 .9 4 2.2.2-2.3 2-4.2 4.2-4.2 2.4.1 4.2 2.2 4 4.6-.2 2.3-2.1 4-4.2 4v3c2.2.1 4 1.8 4.2 4 .2 2.4-1.6 4.5-4 4.6-2.2 0-4-1.9-4.2-4.2C9 20.1 7.6 21 6 21c-2.8 0-5-2.2-5-5V9c0-2.8 2.2-5 5-5z"></path>
  <path d="M12 16.8c0 2.8 2.2 5 5 5s5-2.2 5-5v-8c0-2.8-2.2-5-5-5s-5 2.2-5 5"></path>
  <path d="M18 7l-6 3 6 3"></path>
  <path d="M6 7l6 3-6 3"></path>
</svg>